<?xml version="1.0" encoding="UTF-8"?>
<!DOCTYPE svg PUBLIC "-//W3C//DTD SVG 1.1//EN" "http://www.w3.org/Graphics/SVG/1.1/DTD/svg11.dtd">
<svg xmlns="http://www.w3.org/2000/svg" version="1.1" width="63px" height="71px" style="shape-rendering:geometricPrecision; text-rendering:geometricPrecision; image-rendering:optimizeQuality; fill-rule:evenodd; clip-rule:evenodd" xmlns:xlink="http://www.w3.org/1999/xlink">
<g><path style="opacity:1" fill="#fcfcfc" d="M -0.5,-0.5 C 20.5,-0.5 41.5,-0.5 62.5,-0.5C 62.5,23.1667 62.5,46.8333 62.5,70.5C 41.5,70.5 20.5,70.5 -0.5,70.5C -0.5,46.8333 -0.5,23.1667 -0.5,-0.5 Z"/></g>
<g><path style="opacity:1" fill="#4a4a4a" d="M 27.5,4.5 C 46.361,4.52369 54.861,13.857 53,32.5C 49.6979,37.8129 46.3646,43.1462 43,48.5C 42.8522,54.2488 42.1856,59.9155 41,65.5C 36.3911,67.5104 31.5577,68.0104 26.5,67C 25.6919,66.6924 25.0253,66.1924 24.5,65.5C 23.8445,59.489 23.0111,53.489 22,47.5C 17.8439,42.678 14.5106,37.3447 12,31.5C 10.2666,18.4274 15.4332,9.42744 27.5,4.5 Z"/></g>
<g><path style="opacity:1" fill="#fbfbfb" d="M 28.5,8.5 C 44.9786,8.46812 51.812,16.4681 49,32.5C 46,36.8333 43,41.1667 40,45.5C 39.187,47.4357 38.687,49.4357 38.5,51.5C 34.5,51.5 30.5,51.5 26.5,51.5C 26.477,49.0733 25.977,46.74 25,44.5C 22.0887,41.0105 19.422,37.3438 17,33.5C 13.2943,21.5831 17.1276,13.2498 28.5,8.5 Z"/></g>
<g><path style="opacity:1" fill="#c1c1c1" d="M 38.5,56.5 C 34.8333,56.5 31.1667,56.5 27.5,56.5C 27.5,58.5 27.5,60.5 27.5,62.5C 26.5318,60.3926 26.1984,58.0593 26.5,55.5C 30.7016,55.1832 34.7016,55.5166 38.5,56.5 Z"/></g>
<g><path style="opacity:1" fill="#fdfdfd" d="M 38.5,56.5 C 38.7564,58.7925 38.4231,60.9592 37.5,63C 33.9733,63.8075 30.6399,63.6408 27.5,62.5C 27.5,60.5 27.5,58.5 27.5,56.5C 31.1667,56.5 34.8333,56.5 38.5,56.5 Z"/></g>
</svg>
