<?xml version="1.0" encoding="UTF-8"?>
<!DOCTYPE svg PUBLIC "-//W3C//DTD SVG 1.1//EN" "http://www.w3.org/Graphics/SVG/1.1/DTD/svg11.dtd">
<svg xmlns="http://www.w3.org/2000/svg" version="1.1" width="62px" height="67px" style="shape-rendering:geometricPrecision; text-rendering:geometricPrecision; image-rendering:optimizeQuality; fill-rule:evenodd; clip-rule:evenodd" xmlns:xlink="http://www.w3.org/1999/xlink">
<g><path style="opacity:1" fill="#e1e1e4" d="M -0.5,-0.5 C 8.16667,-0.5 16.8333,-0.5 25.5,-0.5C 24.0998,0.100078 23.0998,1.10008 22.5,2.5C 13.011,8.09972 9.17762,16.4331 11,27.5C 13.8328,33.1697 17.1661,38.503 21,43.5C 21.3333,48.5 21.6667,53.5 22,58.5C 22.9973,60.3231 24.1639,61.9897 25.5,63.5C 23.742,63.1231 22.0754,62.4565 20.5,61.5C 18.7367,62.9538 17.4033,62.6204 16.5,60.5C 17.3467,59.1552 18.5134,58.1552 20,57.5C 20.498,54.5184 20.6646,51.5184 20.5,48.5C 18.8008,48.6602 17.1341,48.4935 15.5,48C 14.8266,45.1413 13.9932,42.308 13,39.5C 11.8904,37.9632 10.3904,37.2965 8.5,37.5C 8.26057,35.5328 8.59391,33.6995 9.5,32C 9.16667,31.8333 8.83333,31.6667 8.5,31.5C 7.83333,32.5 7.16667,33.5 6.5,34.5C 5.91395,34.2907 5.41395,33.9574 5,33.5C 4.81844,30.7737 4.31844,28.1071 3.5,25.5C 2.45715,27.8493 1.12381,29.8493 -0.5,31.5C -0.5,20.8333 -0.5,10.1667 -0.5,-0.5 Z"/></g>
<g><path style="opacity:1" fill="#dfdfe4" d="M 25.5,-0.5 C 37.5,-0.5 49.5,-0.5 61.5,-0.5C 61.5,9.5 61.5,19.5 61.5,29.5C 60.8386,28.2825 60.1719,26.9492 59.5,25.5C 58.3793,28.1369 58.3793,30.8035 59.5,33.5C 58.7139,35.5713 57.3806,37.238 55.5,38.5C 56.4279,39.7678 56.5946,41.1011 56,42.5C 53.8601,43.7282 52.1934,45.3949 51,47.5C 49,44.5 49,41.5 51,38.5C 52.0113,37.6634 53.1779,37.33 54.5,37.5C 55.6685,26.0316 54.5018,25.365 51,35.5C 50,36.1667 49,36.8333 48,37.5C 47.8236,40.8818 47.3236,44.2152 46.5,47.5C 45.8338,46.1687 45.8338,44.6687 46.5,43C 46.3158,41.6244 45.6491,40.7911 44.5,40.5C 53.2762,31.2912 54.7762,20.9579 49,9.5C 41.7136,1.12415 32.8803,-1.20918 22.5,2.5C 23.0998,1.10008 24.0998,0.100078 25.5,-0.5 Z"/></g>
<g><path style="opacity:1" fill="#e2e2e2" d="M 25.5,63.5 C 29.8461,63.6657 34.1794,63.499 38.5,63C 39,62.5 39.5,62 40,61.5C 41.1856,55.9155 41.8522,50.2488 42,44.5C 42.6082,42.9336 43.4415,41.6002 44.5,40.5C 45.6491,40.7911 46.3158,41.6244 46.5,43C 45.8338,44.6687 45.8338,46.1687 46.5,47.5C 47.3236,44.2152 47.8236,40.8818 48,37.5C 49,36.8333 50,36.1667 51,35.5C 54.5018,25.365 55.6685,26.0316 54.5,37.5C 53.1779,37.33 52.0113,37.6634 51,38.5C 49,41.5 49,44.5 51,47.5C 52.1934,45.3949 53.8601,43.7282 56,42.5C 56.5946,41.1011 56.4279,39.7678 55.5,38.5C 57.3806,37.238 58.7139,35.5713 59.5,33.5C 58.3793,30.8035 58.3793,28.1369 59.5,25.5C 60.1719,26.9492 60.8386,28.2825 61.5,29.5C 61.5,41.8333 61.5,54.1667 61.5,66.5C 40.8333,66.5 20.1667,66.5 -0.5,66.5C -0.5,54.8333 -0.5,43.1667 -0.5,31.5C 1.12381,29.8493 2.45715,27.8493 3.5,25.5C 4.31844,28.1071 4.81844,30.7737 5,33.5C 5.41395,33.9574 5.91395,34.2907 6.5,34.5C 7.16667,33.5 7.83333,32.5 8.5,31.5C 8.83333,31.6667 9.16667,31.8333 9.5,32C 8.59391,33.6995 8.26057,35.5328 8.5,37.5C 10.3904,37.2965 11.8904,37.9632 13,39.5C 13.9932,42.308 14.8266,45.1413 15.5,48C 17.1341,48.4935 18.8008,48.6602 20.5,48.5C 20.6646,51.5184 20.498,54.5184 20,57.5C 18.5134,58.1552 17.3467,59.1552 16.5,60.5C 17.4033,62.6204 18.7367,62.9538 20.5,61.5C 22.0754,62.4565 23.742,63.1231 25.5,63.5 Z"/></g>
<g><path style="opacity:1" fill="#39368b" d="M 44.5,40.5 C 43.4415,41.6002 42.6082,42.9336 42,44.5C 41.8522,50.2488 41.1856,55.9155 40,61.5C 39.5,62 39,62.5 38.5,63C 34.1794,63.499 29.8461,63.6657 25.5,63.5C 24.1639,61.9897 22.9973,60.3231 22,58.5C 21.6667,53.5 21.3333,48.5 21,43.5C 17.1661,38.503 13.8328,33.1697 11,27.5C 9.17762,16.4331 13.011,8.09972 22.5,2.5C 32.8803,-1.20918 41.7136,1.12415 49,9.5C 54.7762,20.9579 53.2762,31.2912 44.5,40.5 Z"/></g>
<g><path style="opacity:1" fill="#e1e1e3" d="M 26.5,4.5 C 42.1381,3.63888 49.6381,10.9722 49,26.5C 46.7433,31.3464 43.7433,35.6797 40,39.5C 38.6591,42.022 37.8257,44.6887 37.5,47.5C 33.5,47.5 29.5,47.5 25.5,47.5C 24.59,41.0154 21.59,35.6821 16.5,31.5C 11.7213,19.4052 15.0546,10.4052 26.5,4.5 Z"/></g>
<g><path style="opacity:1" fill="#e3e2e2" d="M 37.5,52.5 C 37.7947,54.7354 37.4614,56.7354 36.5,58.5C 33.5,58.5 30.5,58.5 27.5,58.5C 27.5,56.5 27.5,54.5 27.5,52.5C 30.8333,52.5 34.1667,52.5 37.5,52.5 Z"/></g>
<g><path style="opacity:1" fill="#cacbea" d="M 37.5,52.5 C 34.1667,52.5 30.8333,52.5 27.5,52.5C 27.5,54.5 27.5,56.5 27.5,58.5C 30.5,58.5 33.5,58.5 36.5,58.5C 33.3601,59.6408 30.0267,59.8075 26.5,59C 25.565,56.6194 25.2317,54.1194 25.5,51.5C 29.7016,51.1832 33.7016,51.5166 37.5,52.5 Z"/></g>
</svg>
