<?xml version="1.0" encoding="UTF-8"?>
<!DOCTYPE svg PUBLIC "-//W3C//DTD SVG 1.1//EN" "http://www.w3.org/Graphics/SVG/1.1/DTD/svg11.dtd">
<svg xmlns="http://www.w3.org/2000/svg" version="1.1" width="62px" height="72px" style="shape-rendering:geometricPrecision; text-rendering:geometricPrecision; image-rendering:optimizeQuality; fill-rule:evenodd; clip-rule:evenodd" xmlns:xlink="http://www.w3.org/1999/xlink">
<g><path style="opacity:1" fill="#e4e1e2" d="M 22.5,-0.5 C 35.5,-0.5 48.5,-0.5 61.5,-0.5C 61.5,11.5 61.5,23.5 61.5,35.5C 59.9557,35.7031 58.6223,36.3698 57.5,37.5C 56.2638,36.7542 54.9305,36.4208 53.5,36.5C 57.6255,32.4637 58.4588,27.797 56,22.5C 51.8139,18.3065 47.3139,17.6398 42.5,20.5C 37.8319,22.5446 36.4986,25.8779 38.5,30.5C 38.5,30.8333 38.5,31.1667 38.5,31.5C 39.0798,33.7488 40.4131,35.4154 42.5,36.5C 42.5,37.5 42.5,38.5 42.5,39.5C 36.1589,40.7791 29.8256,40.7791 23.5,39.5C 23.5,35.1667 23.5,30.8333 23.5,26.5C 25.1788,26.7148 26.1788,26.0481 26.5,24.5C 29.3243,20.6399 30.1577,16.3065 29,11.5C 25.5078,6.72463 21.0078,5.3913 15.5,7.5C 18.2848,5.28939 20.6181,2.62272 22.5,-0.5 Z"/></g>
<g><path style="opacity:1" fill="#e93640" d="M 26.5,24.5 C 25.4168,24.5394 24.4168,24.8728 23.5,25.5C 22.3361,31.8072 22.1694,38.1405 23,44.5C 24.2547,43.7894 25.4214,42.956 26.5,42C 31.5,41.6667 36.5,41.3333 41.5,41C 44.285,40.2742 44.9516,38.7742 43.5,36.5C 42.1182,34.4514 40.4516,32.7847 38.5,31.5C 38.5,31.1667 38.5,30.8333 38.5,30.5C 38.8719,26.7906 40.2052,23.4573 42.5,20.5C 47.3139,17.6398 51.8139,18.3065 56,22.5C 58.4588,27.797 57.6255,32.4637 53.5,36.5C 49.3515,37.1221 46.6849,39.4554 45.5,43.5C 44.2438,43.4614 43.2438,43.9614 42.5,45C 36.9842,45.1733 31.6509,45.6733 26.5,46.5C 25.3398,47.265 24.3398,48.265 23.5,49.5C 26.64,51.3073 28.64,53.974 29.5,57.5C 30.3417,62.0506 29.0083,65.7173 25.5,68.5C 14.5796,71.0829 9.74623,66.7496 11,55.5C 12.0591,53.3408 13.5591,51.6741 15.5,50.5C 16.5,50.5 17.5,50.5 18.5,50.5C 18.8261,41.9832 18.4927,33.6499 17.5,25.5C 10.6679,22.4804 8.83459,17.4804 12,10.5C 13.1451,9.36362 14.3117,8.36362 15.5,7.5C 21.0078,5.3913 25.5078,6.72463 29,11.5C 30.1577,16.3065 29.3243,20.6399 26.5,24.5 Z"/></g>
<g><path style="opacity:1" fill="#f1d3d8" d="M 15.5,18.5 C 16.1556,17.7222 16.9889,17.0556 18,16.5C 19.726,17.6479 19.5593,18.8145 17.5,20C 19.1667,20.6667 20.8333,20.6667 22.5,20C 22.0426,19.586 21.7093,19.086 21.5,18.5C 22.2739,17.2888 23.1072,17.2888 24,18.5C 24.9461,16.0437 24.4461,14.0437 22.5,12.5C 21.3961,13.6313 21.7295,14.4646 23.5,15C 21.5355,15.624 19.8689,15.124 18.5,13.5C 17.12,15.9767 16.12,15.9767 15.5,13.5C 16.0138,11.5613 17.3472,10.5613 19.5,10.5C 25.151,10.989 26.9843,13.989 25,19.5C 21.2422,23.5936 18.0756,23.2603 15.5,18.5 Z"/></g>
<g><path style="opacity:1" fill="#dee4dd" d="M 15.5,18.5 C 14.1667,16.8333 14.1667,15.1667 15.5,13.5C 16.12,15.9767 17.12,15.9767 18.5,13.5C 19.8689,15.124 21.5355,15.624 23.5,15C 21.7295,14.4646 21.3961,13.6313 22.5,12.5C 24.4461,14.0437 24.9461,16.0437 24,18.5C 23.1072,17.2888 22.2739,17.2888 21.5,18.5C 21.7093,19.086 22.0426,19.586 22.5,20C 20.8333,20.6667 19.1667,20.6667 17.5,20C 19.5593,18.8145 19.726,17.6479 18,16.5C 16.9889,17.0556 16.1556,17.7222 15.5,18.5 Z"/></g>
<g><path style="opacity:1" fill="#e55859" d="M 42.5,20.5 C 40.2052,23.4573 38.8719,26.7906 38.5,30.5C 36.4986,25.8779 37.8319,22.5446 42.5,20.5 Z"/></g>
<g><path style="opacity:1" fill="#e8dedf" d="M 44.5,22.5 C 53.3748,22.491 55.3748,25.991 50.5,33C 43.4949,34.3236 40.9949,31.4902 43,24.5C 43.7172,23.9558 44.2172,23.2891 44.5,22.5 Z"/></g>
<g><path style="opacity:1" fill="#e4e2e2" d="M -0.5,-0.5 C 7.16667,-0.5 14.8333,-0.5 22.5,-0.5C 20.6181,2.62272 18.2848,5.28939 15.5,7.5C 14.3117,8.36362 13.1451,9.36362 12,10.5C 8.83459,17.4804 10.6679,22.4804 17.5,25.5C 18.0882,34.103 17.4215,42.4363 15.5,50.5C 13.5591,51.6741 12.0591,53.3408 11,55.5C 9.74623,66.7496 14.5796,71.0829 25.5,68.5C 27.4113,67.925 29.078,66.925 30.5,65.5C 30.1667,67.5 29.8333,69.5 29.5,71.5C 19.5,71.5 9.5,71.5 -0.5,71.5C -0.5,47.5 -0.5,23.5 -0.5,-0.5 Z"/></g>
<g><path style="opacity:1" fill="#d95c5f" d="M 38.5,31.5 C 40.4516,32.7847 42.1182,34.4514 43.5,36.5C 43.1667,36.5 42.8333,36.5 42.5,36.5C 40.4131,35.4154 39.0798,33.7488 38.5,31.5 Z"/></g>
<g><path style="opacity:1" fill="#fda6aa" d="M 17.5,25.5 C 18.4927,33.6499 18.8261,41.9832 18.5,50.5C 17.5,50.5 16.5,50.5 15.5,50.5C 17.4215,42.4363 18.0882,34.103 17.5,25.5 Z"/></g>
<g><path style="opacity:1" fill="#f7d5d9" d="M 26.5,24.5 C 26.1788,26.0481 25.1788,26.7148 23.5,26.5C 23.5,30.8333 23.5,35.1667 23.5,39.5C 29.8256,40.7791 36.1589,40.7791 42.5,39.5C 42.5,38.5 42.5,37.5 42.5,36.5C 42.8333,36.5 43.1667,36.5 43.5,36.5C 44.9516,38.7742 44.285,40.2742 41.5,41C 36.5,41.3333 31.5,41.6667 26.5,42C 25.4214,42.956 24.2547,43.7894 23,44.5C 22.1694,38.1405 22.3361,31.8072 23.5,25.5C 24.4168,24.8728 25.4168,24.5394 26.5,24.5 Z"/></g>
<g><path style="opacity:1" fill="#e3e2e2" d="M 61.5,35.5 C 61.5,47.5 61.5,59.5 61.5,71.5C 50.8333,71.5 40.1667,71.5 29.5,71.5C 29.8333,69.5 30.1667,67.5 30.5,65.5C 30.8064,62.6146 30.4731,59.9479 29.5,57.5C 28.64,53.974 26.64,51.3073 23.5,49.5C 24.3398,48.265 25.3398,47.265 26.5,46.5C 32.1764,46.6661 37.8431,46.4994 43.5,46C 44.3805,45.2917 45.0472,44.4584 45.5,43.5C 46.6849,39.4554 49.3515,37.1221 53.5,36.5C 54.9305,36.4208 56.2638,36.7542 57.5,37.5C 58.6223,36.3698 59.9557,35.7031 61.5,35.5 Z"/></g>
<g><path style="opacity:1" fill="#f3acb2" d="M 45.5,43.5 C 45.0472,44.4584 44.3805,45.2917 43.5,46C 37.8431,46.4994 32.1764,46.6661 26.5,46.5C 31.6509,45.6733 36.9842,45.1733 42.5,45C 43.2438,43.9614 44.2438,43.4614 45.5,43.5 Z"/></g>
<g><path style="opacity:1" fill="#e7dede" d="M 17.5,53.5 C 24.5121,53.5163 26.8455,56.8497 24.5,63.5C 17.9053,67.0823 14.7387,65.0823 15,57.5C 15.6622,56.0161 16.4955,54.6828 17.5,53.5 Z"/></g>
<g><path style="opacity:1" fill="#f3c0c2" d="M 29.5,57.5 C 30.4731,59.9479 30.8064,62.6146 30.5,65.5C 29.078,66.925 27.4113,67.925 25.5,68.5C 29.0083,65.7173 30.3417,62.0506 29.5,57.5 Z"/></g>
</svg>
