<?xml version="1.0" encoding="UTF-8"?>
<!DOCTYPE svg PUBLIC "-//W3C//DTD SVG 1.1//EN" "http://www.w3.org/Graphics/SVG/1.1/DTD/svg11.dtd">
<svg xmlns="http://www.w3.org/2000/svg" version="1.1" width="65px" height="72px" style="shape-rendering:geometricPrecision; text-rendering:geometricPrecision; image-rendering:optimizeQuality; fill-rule:evenodd; clip-rule:evenodd" xmlns:xlink="http://www.w3.org/1999/xlink">
<g><path style="opacity:1" fill="#fcfcfc" d="M -0.5,-0.5 C 21.1667,-0.5 42.8333,-0.5 64.5,-0.5C 64.5,23.5 64.5,47.5 64.5,71.5C 42.8333,71.5 21.1667,71.5 -0.5,71.5C -0.5,47.5 -0.5,23.5 -0.5,-0.5 Z"/></g>
<g><path style="opacity:1" fill="#494949" d="M 16.5,7.5 C 26.5032,7.00158 30.6698,11.6683 29,21.5C 27.9667,24.0327 26.1334,25.6994 23.5,26.5C 22.3361,32.8072 22.1694,39.1405 23,45.5C 23.7504,44.8742 24.5838,44.3742 25.5,44C 30.1667,43.6667 34.8333,43.3333 39.5,43C 41.0806,42.2935 42.5806,41.4601 44,40.5C 44.6667,39.8333 44.6667,39.1667 44,38.5C 38.8334,35.2339 37.1667,30.5672 39,24.5C 44.2109,18.1832 49.8776,17.8499 56,23.5C 58.9835,31.3769 56.4835,36.7102 48.5,39.5C 47.7469,41.7534 46.4136,43.5867 44.5,45C 38.9445,46.2392 33.2778,46.9059 27.5,47C 25.0768,47.7319 23.9101,49.2319 24,51.5C 29.1666,54.7661 30.8333,59.4328 29,65.5C 22.5084,72.4255 16.5084,72.0921 11,64.5C 9.16633,57.5288 11.6663,53.1954 18.5,51.5C 18.5,43.1667 18.5,34.8333 18.5,26.5C 11.9107,24.6667 9.41074,20.3334 11,13.5C 12.3597,10.9774 14.193,8.97739 16.5,7.5 Z"/></g>
<g><path style="opacity:1" fill="#f8f8f8" d="M 44.5,23.5 C 52.7443,23.2276 55.0776,26.7276 51.5,34C 42.4297,35.1356 40.0963,31.6356 44.5,23.5 Z"/></g>
<g><path style="opacity:1" fill="#f5f5f5" d="M 17.5,11.5 C 24.5598,10.7253 27.0598,13.7253 25,20.5C 21.7512,24.3673 18.4179,24.3673 15,20.5C 13.9271,16.9003 14.7605,13.9003 17.5,11.5 Z"/></g>
<g><path style="opacity:1" fill="#f5f5f5" d="M 18.5,54.5 C 24.7948,54.9836 26.9615,58.3169 25,64.5C 17.5771,68.0811 14.2438,65.7478 15,57.5C 16.1451,56.3636 17.3117,55.3636 18.5,54.5 Z"/></g>
</svg>
