<?xml version="1.0" encoding="UTF-8"?>
<!DOCTYPE svg PUBLIC "-//W3C//DTD SVG 1.1//EN" "http://www.w3.org/Graphics/SVG/1.1/DTD/svg11.dtd">
<svg xmlns="http://www.w3.org/2000/svg" version="1.1" width="82px" height="77px" style="shape-rendering:geometricPrecision; text-rendering:geometricPrecision; image-rendering:optimizeQuality; fill-rule:evenodd; clip-rule:evenodd" xmlns:xlink="http://www.w3.org/1999/xlink">
<g><path style="opacity:1" fill="#fcfcfc" d="M -0.5,-0.5 C 26.8333,-0.5 54.1667,-0.5 81.5,-0.5C 81.5,25.1667 81.5,50.8333 81.5,76.5C 54.1667,76.5 26.8333,76.5 -0.5,76.5C -0.5,50.8333 -0.5,25.1667 -0.5,-0.5 Z"/></g>
<g><path style="opacity:1" fill="#494949" d="M 35.5,14.5 C 34.8333,22.1667 34.1667,29.8333 33.5,37.5C 32.1734,33.2175 31.5067,28.5508 31.5,23.5C 31.8333,18.8333 32.1667,14.1667 32.5,9.5C 33.086,9.29069 33.586,8.95735 34,8.5C 46.5,16.3333 59,24.1667 71.5,32C 73.6015,33.7328 73.9348,35.7328 72.5,38C 64.2489,43.0417 56.0822,48.2084 48,53.5C 47.2025,51.7412 47.3691,50.0745 48.5,48.5C 55.1667,44.1667 61.8333,39.8333 68.5,35.5C 57.7551,28.0864 46.7551,21.0864 35.5,14.5 Z"/></g>
<g><path style="opacity:1" fill="#a1a1a1" d="M 35.5,14.5 C 35.831,22.5277 35.4977,30.5277 34.5,38.5C 33.8933,38.3764 33.56,38.0431 33.5,37.5C 34.1667,29.8333 34.8333,22.1667 35.5,14.5 Z"/></g>
<g><path style="opacity:1" fill="#878787" d="M 38.5,51.5 C 39.4345,52.5676 39.7678,53.901 39.5,55.5C 40.8333,55.5 42.1667,55.5 43.5,55.5C 43.7678,57.099 43.4345,58.4324 42.5,59.5C 42.5,58.5 42.5,57.5 42.5,56.5C 41.1667,56.5 39.8333,56.5 38.5,56.5C 38.5,54.8333 38.5,53.1667 38.5,51.5 Z"/></g>
<g><path style="opacity:1" fill="#4a4a4a" d="M 38.5,51.5 C 38.5,53.1667 38.5,54.8333 38.5,56.5C 39.8333,56.5 41.1667,56.5 42.5,56.5C 42.5,57.5 42.5,58.5 42.5,59.5C 41.1667,59.5 39.8333,59.5 38.5,59.5C 38.3398,61.1992 38.5065,62.8659 39,64.5C 42.8986,66.5524 43.2319,68.8857 40,71.5C 38.6667,70.1667 37.3333,68.8333 36,67.5C 30.0964,72.6869 24.263,72.6869 18.5,67.5C 16.9288,69.415 14.9288,70.415 12.5,70.5C 13.1434,67.6749 14.4767,65.1749 16.5,63C 15.8994,60.3628 14.2327,59.1961 11.5,59.5C 11.5,58.1667 11.5,56.8333 11.5,55.5C 12.8333,55.5 14.1667,55.5 15.5,55.5C 15.6602,53.8008 15.4935,52.1341 15,50.5C 13.647,49.3147 12.4803,47.9814 11.5,46.5C 13.5,43.8333 15.5,43.8333 17.5,46.5C 22.2947,39.7246 28.128,38.7246 35,43.5C 35.6667,44.8333 36.3333,46.1667 37,47.5C 38.1133,45.6707 39.6133,44.8374 41.5,45C 41.9574,45.414 42.2907,45.914 42.5,46.5C 41.1431,48.1856 39.8098,49.8523 38.5,51.5 Z"/></g>
<g><path style="opacity:1" fill="#fafafa" d="M 19.5,54.5 C 24.5,54.5 29.5,54.5 34.5,54.5C 34.5,56.8333 34.5,59.1667 34.5,61.5C 30.2248,68.9844 25.3915,69.3177 20,62.5C 19.5026,59.854 19.3359,57.1873 19.5,54.5 Z"/></g>
<g><path style="opacity:1" fill="#c2c2c2" d="M 19.5,54.5 C 24.6405,53.5119 29.9738,53.1786 35.5,53.5C 35.8064,56.3854 35.4731,59.0521 34.5,61.5C 34.5,59.1667 34.5,56.8333 34.5,54.5C 29.5,54.5 24.5,54.5 19.5,54.5 Z"/></g>
<g><path style="opacity:1" fill="#f9f9f9" d="M 23.5,44.5 C 25.8568,44.3367 28.1902,44.5034 30.5,45C 32.0368,46.1096 32.7035,47.6096 32.5,49.5C 28.774,49.8226 25.1073,49.4892 21.5,48.5C 22.1799,47.1401 22.8466,45.8068 23.5,44.5 Z"/></g>
</svg>
