<?xml version="1.0" encoding="UTF-8"?>
<!DOCTYPE svg PUBLIC "-//W3C//DTD SVG 1.1//EN" "http://www.w3.org/Graphics/SVG/1.1/DTD/svg11.dtd">
<svg xmlns="http://www.w3.org/2000/svg" version="1.1" width="78px" height="76px" style="shape-rendering:geometricPrecision; text-rendering:geometricPrecision; image-rendering:optimizeQuality; fill-rule:evenodd; clip-rule:evenodd" xmlns:xlink="http://www.w3.org/1999/xlink">
<g><path style="opacity:1" fill="#e3e2e3" d="M -0.5,-0.5 C 10.8333,-0.5 22.1667,-0.5 33.5,-0.5C 34.952,1.85189 36.952,2.18522 39.5,0.5C 41.3325,1.24848 42.9991,2.24848 44.5,3.5C 43.624,4.25083 42.624,4.75083 41.5,5C 42.1667,6 42.8333,7 43.5,8C 40.9047,8.60039 38.5713,8.10039 36.5,6.5C 35.1155,5.19914 33.6155,5.19914 32,6.5C 31.3333,16.1667 31.3333,25.8333 32,35.5C 32.6708,36.2524 33.5041,36.5858 34.5,36.5C 35.9319,38.3271 37.5986,39.9937 39.5,41.5C 38.675,42.3857 37.675,42.719 36.5,42.5C 32.9747,38.5721 28.6413,37.2388 23.5,38.5C 21.6412,38.4609 20.3079,39.2942 19.5,41C 17.0641,40.9466 14.7308,41.1133 12.5,41.5C 11.6518,43.4086 11.3184,45.4086 11.5,47.5C 12.5,47.5 13.5,47.5 14.5,47.5C 14.8333,47.5 15.1667,47.5 15.5,47.5C 15.5,47.8333 15.5,48.1667 15.5,48.5C 15.5,49.8333 15.5,51.1667 15.5,52.5C 10.8415,52.0146 9.50813,53.848 11.5,58C 12.7932,58.49 14.1266,58.6567 15.5,58.5C 15.5,60.1667 15.5,61.8333 15.5,63.5C 14.1667,63.5 12.8333,63.5 11.5,63.5C 10.9066,66.5959 11.9066,68.9292 14.5,70.5C 16.6621,68.9802 18.9954,67.9802 21.5,67.5C 21.4142,68.4959 21.7476,69.3292 22.5,70C 24.8098,70.4966 27.1432,70.6633 29.5,70.5C 29.6399,72.1238 28.9733,73.2904 27.5,74C 29.0581,74.21 30.3915,74.71 31.5,75.5C 20.8333,75.5 10.1667,75.5 -0.5,75.5C -0.5,50.1667 -0.5,24.8333 -0.5,-0.5 Z"/></g>
<g><path style="opacity:1" fill="#46b056" d="M 36.5,6.5 C 48.6765,15.1821 61.1765,23.5154 74,31.5C 74.7805,32.9437 74.6139,34.277 73.5,35.5C 67.1317,39.553 60.7983,43.553 54.5,47.5C 53.448,47.6495 52.448,47.4828 51.5,47C 53.7293,44.5997 56.0626,42.433 58.5,40.5C 63.1916,38.7993 66.525,35.7993 68.5,31.5C 58.2171,26.0229 48.2171,20.0229 38.5,13.5C 37.791,12.596 36.791,12.2627 35.5,12.5C 35.8308,20.1955 35.4975,27.8622 34.5,35.5C 33.914,35.2907 33.414,34.9574 33,34.5C 32.3333,25.5 32.3333,16.5 33,7.5C 34.0113,6.66337 35.1779,6.33003 36.5,6.5 Z"/></g>
<g><path style="opacity:1" fill="#a2dba7" d="M 36.5,6.5 C 35.1779,6.33003 34.0113,6.66337 33,7.5C 32.3333,16.5 32.3333,25.5 33,34.5C 33.414,34.9574 33.914,35.2907 34.5,35.5C 35.4975,27.8622 35.8308,20.1955 35.5,12.5C 36.791,12.2627 37.791,12.596 38.5,13.5C 37.1667,21.1667 35.8333,28.8333 34.5,36.5C 33.5041,36.5858 32.6708,36.2524 32,35.5C 31.3333,25.8333 31.3333,16.1667 32,6.5C 33.6155,5.19914 35.1155,5.19914 36.5,6.5 Z"/></g>
<g><path style="opacity:1" fill="#4ab15b" d="M 36.5,42.5 C 36.811,43.4778 37.4777,44.1445 38.5,44.5C 40.3324,42.0428 41.9991,42.0428 43.5,44.5C 43.1445,45.5223 42.4778,46.189 41.5,46.5C 41.631,45.7611 41.4643,45.0944 41,44.5C 39.2252,47.0443 37.3918,47.0443 35.5,44.5C 34.8243,45.6016 34.1577,46.6016 33.5,47.5C 33.7709,45.6203 33.1042,44.287 31.5,43.5C 29.3718,42.3709 27.0385,42.2042 24.5,43C 22.9632,44.1096 22.2965,45.6096 22.5,47.5C 21.8999,46.0998 20.8999,45.0998 19.5,44.5C 20.4151,42.2459 21.7484,40.2459 23.5,38.5C 28.6413,37.2388 32.9747,38.5721 36.5,42.5 Z"/></g>
<g><path style="opacity:1" fill="#cde8cd" d="M 23.5,38.5 C 21.7484,40.2459 20.4151,42.2459 19.5,44.5C 17.856,43.6343 16.1893,43.1343 14.5,43C 13.2721,44.4902 13.2721,45.9902 14.5,47.5C 13.5,47.5 12.5,47.5 11.5,47.5C 11.3184,45.4086 11.6518,43.4086 12.5,41.5C 14.7308,41.1133 17.0641,40.9466 19.5,41C 20.3079,39.2942 21.6412,38.4609 23.5,38.5 Z"/></g>
<g><path style="opacity:1" fill="#e5e2e2" d="M 31.5,43.5 C 33.1042,44.287 33.7709,45.6203 33.5,47.5C 30.1667,47.5 26.8333,47.5 23.5,47.5C 23.5106,45.9826 24.1772,44.8159 25.5,44C 27.4727,43.5045 29.4727,43.3379 31.5,43.5 Z"/></g>
<g><path style="opacity:1" fill="#c1e6c3" d="M 31.5,43.5 C 29.4727,43.3379 27.4727,43.5045 25.5,44C 24.1772,44.8159 23.5106,45.9826 23.5,47.5C 23.1667,47.5 22.8333,47.5 22.5,47.5C 22.2965,45.6096 22.9632,44.1096 24.5,43C 27.0385,42.2042 29.3718,42.3709 31.5,43.5 Z"/></g>
<g><path style="opacity:1" fill="#59ad67" d="M 19.5,44.5 C 17.7809,45.0221 16.4475,46.0221 15.5,47.5C 15.1667,47.5 14.8333,47.5 14.5,47.5C 13.2721,45.9902 13.2721,44.4902 14.5,43C 16.1893,43.1343 17.856,43.6343 19.5,44.5 Z"/></g>
<g><path style="opacity:1" fill="#e1e3e1" d="M 33.5,-0.5 C 48.1667,-0.5 62.8333,-0.5 77.5,-0.5C 77.5,24.8333 77.5,50.1667 77.5,75.5C 62.1667,75.5 46.8333,75.5 31.5,75.5C 30.3915,74.71 29.0581,74.21 27.5,74C 28.9733,73.2904 29.6399,72.1238 29.5,70.5C 27.1432,70.6633 24.8098,70.4966 22.5,70C 21.7476,69.3292 21.4142,68.4959 21.5,67.5C 26.9156,70.531 31.9156,69.8644 36.5,65.5C 38.1487,66.6477 39.6487,67.981 41,69.5C 44.1019,67.6627 44.2686,65.6627 41.5,63.5C 40.962,61.8828 40.6287,60.2161 40.5,58.5C 41.5,58.5 42.5,58.5 43.5,58.5C 43.281,59.675 43.6143,60.675 44.5,61.5C 44.8333,61.1667 45.1667,60.8333 45.5,60.5C 44.2103,57.3477 44.2103,54.1811 45.5,51C 45.1667,50.5 44.8333,50 44.5,49.5C 43.6143,50.325 43.281,51.325 43.5,52.5C 42.5,52.5 41.5,52.5 40.5,52.5C 40.5,50.8333 40.5,49.1667 40.5,47.5C 41.1667,47.5 41.5,47.1667 41.5,46.5C 42.4778,46.189 43.1445,45.5223 43.5,44.5C 41.9991,42.0428 40.3324,42.0428 38.5,44.5C 37.4777,44.1445 36.811,43.4778 36.5,42.5C 37.675,42.719 38.675,42.3857 39.5,41.5C 37.5986,39.9937 35.9319,38.3271 34.5,36.5C 35.8333,28.8333 37.1667,21.1667 38.5,13.5C 48.2171,20.0229 58.2171,26.0229 68.5,31.5C 66.525,35.7993 63.1916,38.7993 58.5,40.5C 57.448,40.3505 56.448,40.5172 55.5,41C 53.2953,43.5402 50.7953,45.7068 48,47.5C 47.2195,48.9437 47.3861,50.277 48.5,51.5C 50.8132,50.4995 52.8132,49.1662 54.5,47.5C 60.7983,43.553 67.1317,39.553 73.5,35.5C 74.6139,34.277 74.7805,32.9437 74,31.5C 61.1765,23.5154 48.6765,15.1821 36.5,6.5C 38.5713,8.10039 40.9047,8.60039 43.5,8C 42.8333,7 42.1667,6 41.5,5C 42.624,4.75083 43.624,4.25083 44.5,3.5C 42.9991,2.24848 41.3325,1.24848 39.5,0.5C 36.952,2.18522 34.952,1.85189 33.5,-0.5 Z"/></g>
<g><path style="opacity:1" fill="#67b370" d="M 58.5,40.5 C 56.0626,42.433 53.7293,44.5997 51.5,47C 52.448,47.4828 53.448,47.6495 54.5,47.5C 52.8132,49.1662 50.8132,50.4995 48.5,51.5C 47.3861,50.277 47.2195,48.9437 48,47.5C 50.7953,45.7068 53.2953,43.5402 55.5,41C 56.448,40.5172 57.448,40.3505 58.5,40.5 Z"/></g>
<g><path style="opacity:1" fill="#3eb24e" d="M 19.5,44.5 C 20.8999,45.0998 21.8999,46.0998 22.5,47.5C 22.8333,47.5 23.1667,47.5 23.5,47.5C 26.8333,47.5 30.1667,47.5 33.5,47.5C 34.1577,46.6016 34.8243,45.6016 35.5,44.5C 37.3918,47.0443 39.2252,47.0443 41,44.5C 41.4643,45.0944 41.631,45.7611 41.5,46.5C 41.5,47.1667 41.1667,47.5 40.5,47.5C 39.5386,49.2646 39.2053,51.2646 39.5,53.5C 40.8333,53.5 42.1667,53.5 43.5,53.5C 43.5,54.8333 43.5,56.1667 43.5,57.5C 42.1667,57.5 40.8333,57.5 39.5,57.5C 38.1888,59.5598 38.1888,61.7265 39.5,64C 37.8333,64.6667 36.1667,64.6667 34.5,64C 36.1066,62.951 36.7733,61.451 36.5,59.5C 36.5,56.8333 36.5,54.1667 36.5,51.5C 31.1667,51.5 25.8333,51.5 20.5,51.5C 19.5,51.5 18.5,51.5 17.5,51.5C 17.8432,49.5168 17.1765,48.1834 15.5,47.5C 16.4475,46.0221 17.7809,45.0221 19.5,44.5 Z"/></g>
<g><path style="opacity:1" fill="#addcb0" d="M 20.5,51.5 C 25.8333,51.5 31.1667,51.5 36.5,51.5C 36.5,54.1667 36.5,56.8333 36.5,59.5C 36.1667,59.5 35.8333,59.5 35.5,59.5C 35.5,57.1667 35.5,54.8333 35.5,52.5C 30.8333,52.5 26.1667,52.5 21.5,52.5C 21.5,54.8333 21.5,57.1667 21.5,59.5C 20.5269,57.0521 20.1936,54.3854 20.5,51.5 Z"/></g>
<g><path style="opacity:1" fill="#dce6da" d="M 35.5,59.5 C 34.4884,60.8717 33.4884,62.205 32.5,63.5C 25.7427,59.5562 26.4093,58.2229 34.5,59.5C 34.5,58.5 34.5,57.5 34.5,56.5C 33.5,56.5 32.5,56.5 31.5,56.5C 31.5,55.5 31.5,54.5 31.5,53.5C 28.5,53.5 25.5,53.5 22.5,53.5C 22.2011,55.604 22.5344,57.604 23.5,59.5C 24.9705,60.3805 25.8038,61.7139 26,63.5C 27.6995,64.4061 29.5328,64.7394 31.5,64.5C 26.4755,66.5136 23.1421,64.8469 21.5,59.5C 21.5,57.1667 21.5,54.8333 21.5,52.5C 26.1667,52.5 30.8333,52.5 35.5,52.5C 35.5,54.8333 35.5,57.1667 35.5,59.5 Z"/></g>
<g><path style="opacity:1" fill="#c5e7c6" d="M 15.5,48.5 C 16.4511,49.9187 16.7845,51.5853 16.5,53.5C 15.1667,53.5 13.8333,53.5 12.5,53.5C 12.5,54.8333 12.5,56.1667 12.5,57.5C 16.6772,56.8416 18.1772,58.5082 17,62.5C 16.6174,63.056 16.1174,63.3893 15.5,63.5C 15.5,61.8333 15.5,60.1667 15.5,58.5C 14.1266,58.6567 12.7932,58.49 11.5,58C 9.50813,53.848 10.8415,52.0146 15.5,52.5C 15.5,51.1667 15.5,49.8333 15.5,48.5 Z"/></g>
<g><path style="opacity:1" fill="#e5e0e6" d="M 32.5,63.5 C 31.8333,63.5 31.5,63.8333 31.5,64.5C 29.5328,64.7394 27.6995,64.4061 26,63.5C 25.8038,61.7139 24.9705,60.3805 23.5,59.5C 22.5344,57.604 22.2011,55.604 22.5,53.5C 25.5,53.5 28.5,53.5 31.5,53.5C 31.5,54.5 31.5,55.5 31.5,56.5C 32.5,56.5 33.5,56.5 34.5,56.5C 34.5,57.5 34.5,58.5 34.5,59.5C 26.4093,58.2229 25.7427,59.5562 32.5,63.5 Z"/></g>
<g><path style="opacity:1" fill="#cbe2c9" d="M 40.5,47.5 C 40.5,49.1667 40.5,50.8333 40.5,52.5C 41.5,52.5 42.5,52.5 43.5,52.5C 43.281,51.325 43.6143,50.325 44.5,49.5C 44.8333,50 45.1667,50.5 45.5,51C 44.2103,54.1811 44.2103,57.3477 45.5,60.5C 45.1667,60.8333 44.8333,61.1667 44.5,61.5C 43.6143,60.675 43.281,59.675 43.5,58.5C 42.5,58.5 41.5,58.5 40.5,58.5C 40.6287,60.2161 40.962,61.8828 41.5,63.5C 39.7202,62.0101 39.0535,60.0101 39.5,57.5C 40.8333,57.5 42.1667,57.5 43.5,57.5C 43.5,56.1667 43.5,54.8333 43.5,53.5C 42.1667,53.5 40.8333,53.5 39.5,53.5C 39.2053,51.2646 39.5386,49.2646 40.5,47.5 Z"/></g>
<g><path style="opacity:1" fill="#4bb05a" d="M 15.5,48.5 C 15.5,48.1667 15.5,47.8333 15.5,47.5C 17.1765,48.1834 17.8432,49.5168 17.5,51.5C 18.5,51.5 19.5,51.5 20.5,51.5C 20.1936,54.3854 20.5269,57.0521 21.5,59.5C 23.1421,64.8469 26.4755,66.5136 31.5,64.5C 31.5,63.8333 31.8333,63.5 32.5,63.5C 33.4884,62.205 34.4884,60.8717 35.5,59.5C 35.8333,59.5 36.1667,59.5 36.5,59.5C 36.7733,61.451 36.1066,62.951 34.5,64C 36.1667,64.6667 37.8333,64.6667 39.5,64C 38.1888,61.7265 38.1888,59.5598 39.5,57.5C 39.0535,60.0101 39.7202,62.0101 41.5,63.5C 44.2686,65.6627 44.1019,67.6627 41,69.5C 39.6487,67.981 38.1487,66.6477 36.5,65.5C 31.9156,69.8644 26.9156,70.531 21.5,67.5C 21.189,66.5222 20.5223,65.8555 19.5,65.5C 17.9288,67.415 15.9288,68.415 13.5,68.5C 13.3915,66.4862 14.0582,64.8195 15.5,63.5C 16.1174,63.3893 16.6174,63.056 17,62.5C 18.1772,58.5082 16.6772,56.8416 12.5,57.5C 12.5,56.1667 12.5,54.8333 12.5,53.5C 13.8333,53.5 15.1667,53.5 16.5,53.5C 16.7845,51.5853 16.4511,49.9187 15.5,48.5 Z"/></g>
<g><path style="opacity:1" fill="#c5e7c8" d="M 15.5,63.5 C 14.0582,64.8195 13.3915,66.4862 13.5,68.5C 15.9288,68.415 17.9288,67.415 19.5,65.5C 20.5223,65.8555 21.189,66.5222 21.5,67.5C 18.9954,67.9802 16.6621,68.9802 14.5,70.5C 11.9066,68.9292 10.9066,66.5959 11.5,63.5C 12.8333,63.5 14.1667,63.5 15.5,63.5 Z"/></g>
</svg>
