<?xml version="1.0" encoding="UTF-8"?>
<!DOCTYPE svg PUBLIC "-//W3C//DTD SVG 1.1//EN" "http://www.w3.org/Graphics/SVG/1.1/DTD/svg11.dtd">
<svg xmlns="http://www.w3.org/2000/svg" version="1.1" width="70px" height="67px" style="shape-rendering:geometricPrecision; text-rendering:geometricPrecision; image-rendering:optimizeQuality; fill-rule:evenodd; clip-rule:evenodd" xmlns:xlink="http://www.w3.org/1999/xlink">
<g><path style="opacity:1" fill="#fafafa" d="M -0.5,-0.5 C 22.8333,-0.5 46.1667,-0.5 69.5,-0.5C 69.5,21.8333 69.5,44.1667 69.5,66.5C 64.1667,66.5 58.8333,66.5 53.5,66.5C 54.1217,65.3734 54.955,64.3734 56,63.5C 56.6667,56.5 56.6667,49.5 56,42.5C 55.1667,41.6667 54.3333,40.8333 53.5,40C 46.8417,39.5004 40.175,39.3337 33.5,39.5C 33.6663,32.825 33.4996,26.1583 33,19.5C 31.871,17.8588 30.371,16.8588 28.5,16.5C 21.825,16.3337 15.1583,16.5004 8.5,17C 8,17.5 7.5,18 7,18.5C 6.33333,33.8333 6.33333,49.1667 7,64.5C 7.71719,65.0442 8.21719,65.7109 8.5,66.5C 5.5,66.5 2.5,66.5 -0.5,66.5C -0.5,44.1667 -0.5,21.8333 -0.5,-0.5 Z"/></g>
<g><path style="opacity:1" fill="#fafafa" d="M 9.5,20.5 C 16.1667,20.5 22.8333,20.5 29.5,20.5C 29.5,26.8333 29.5,33.1667 29.5,39.5C 22.8333,39.5 16.1667,39.5 9.5,39.5C 9.5,33.1667 9.5,26.8333 9.5,20.5 Z"/></g>
<g><path style="opacity:1" fill="#5d5d5d" d="M 28.5,16.5 C 30.371,16.8588 31.871,17.8588 33,19.5C 33.4996,26.1583 33.6663,32.825 33.5,39.5C 32.6724,33.6807 32.1724,27.6807 32,21.5C 30.875,24.4781 30.375,27.6448 30.5,31C 30.522,34.0864 30.8553,37.0864 31.5,40C 23.9882,40.8218 16.6549,40.6552 9.5,39.5C 16.1667,39.5 22.8333,39.5 29.5,39.5C 29.5,33.1667 29.5,26.8333 29.5,20.5C 22.8333,20.5 16.1667,20.5 9.5,20.5C 15.6446,19.5098 21.9779,19.1765 28.5,19.5C 28.5,18.5 28.5,17.5 28.5,16.5 Z"/></g>
<g><path style="opacity:1" fill="#444444" d="M 44.5,4.5 C 51.5079,4.33371 58.5079,4.50038 65.5,5C 66.3333,5.83333 67.1667,6.66667 68,7.5C 68.6667,14.5 68.6667,21.5 68,28.5C 67.1667,29.3333 66.3333,30.1667 65.5,31C 58.5,31.6667 51.5,31.6667 44.5,31C 43.6667,30.1667 42.8333,29.3333 42,28.5C 41.3333,21.5 41.3333,14.5 42,7.5C 43.045,6.62656 43.8783,5.62656 44.5,4.5 Z"/></g>
<g><path style="opacity:1" fill="#a2a2a2" d="M 45.5,8.5 C 45.5,14.8333 45.5,21.1667 45.5,27.5C 51.8333,27.5 58.1667,27.5 64.5,27.5C 58.021,28.4907 51.3543,28.824 44.5,28.5C 44.176,21.6457 44.5093,14.979 45.5,8.5 Z"/></g>
<g><path style="opacity:1" fill="#fefefe" d="M 45.5,8.5 C 51.8333,8.5 58.1667,8.5 64.5,8.5C 64.5,14.8333 64.5,21.1667 64.5,27.5C 64.5,21.1667 64.5,14.8333 64.5,8.5C 58.1667,8.5 51.8333,8.5 45.5,8.5 Z"/></g>
<g><path style="opacity:1" fill="#484848" d="M 28.5,16.5 C 28.5,17.5 28.5,18.5 28.5,19.5C 21.9779,19.1765 15.6446,19.5098 9.5,20.5C 9.5,26.8333 9.5,33.1667 9.5,39.5C 16.6549,40.6552 23.9882,40.8218 31.5,40C 30.8553,37.0864 30.522,34.0864 30.5,31C 30.375,27.6448 30.875,24.4781 32,21.5C 32.1724,27.6807 32.6724,33.6807 33.5,39.5C 40.175,39.3337 46.8417,39.5004 53.5,40C 54.3333,40.8333 55.1667,41.6667 56,42.5C 56.6667,49.5 56.6667,56.5 56,63.5C 54.955,64.3734 54.1217,65.3734 53.5,66.5C 38.5,66.5 23.5,66.5 8.5,66.5C 8.21719,65.7109 7.71719,65.0442 7,64.5C 6.33333,49.1667 6.33333,33.8333 7,18.5C 7.5,18 8,17.5 8.5,17C 15.1583,16.5004 21.825,16.3337 28.5,16.5 Z"/></g>
<g><path style="opacity:1" fill="#f9f9f9" d="M 33.5,43.5 C 39.8333,43.5 46.1667,43.5 52.5,43.5C 52.5,50.1667 52.5,56.8333 52.5,63.5C 46.1667,63.5 39.8333,63.5 33.5,63.5C 33.5,56.8333 33.5,50.1667 33.5,43.5 Z"/></g>
<g><path style="opacity:1" fill="#f5f5f5" d="M 9.5,43.5 C 16.1667,43.5 22.8333,43.5 29.5,43.5C 29.5,50.1667 29.5,56.8333 29.5,63.5C 22.8333,63.5 16.1667,63.5 9.5,63.5C 9.5,56.8333 9.5,50.1667 9.5,43.5 Z"/></g>
</svg>
