<?xml version="1.0" encoding="UTF-8"?>
<!DOCTYPE svg PUBLIC "-//W3C//DTD SVG 1.1//EN" "http://www.w3.org/Graphics/SVG/1.1/DTD/svg11.dtd">
<svg xmlns="http://www.w3.org/2000/svg" version="1.1" width="67px" height="67px" style="shape-rendering:geometricPrecision; text-rendering:geometricPrecision; image-rendering:optimizeQuality; fill-rule:evenodd; clip-rule:evenodd" xmlns:xlink="http://www.w3.org/1999/xlink">
<g><path style="opacity:1" fill="#f5f5f5" d="M -0.5,-0.5 C 21.8333,-0.5 44.1667,-0.5 66.5,-0.5C 66.5,1.5 66.5,3.5 66.5,5.5C 65.0384,4.54227 63.7051,3.37561 62.5,2C 55.8333,1.33333 49.1667,1.33333 42.5,2C 41.6667,2.83333 40.8333,3.66667 40,4.5C 39.3333,11.8333 39.3333,19.1667 40,26.5C 40.5,27 41,27.5 41.5,28C 48.8333,28.6667 56.1667,28.6667 63.5,28C 64.3734,26.955 65.3734,26.1217 66.5,25.5C 66.5,39.1667 66.5,52.8333 66.5,66.5C 44.1667,66.5 21.8333,66.5 -0.5,66.5C -0.5,44.1667 -0.5,21.8333 -0.5,-0.5 Z"/></g>
<g><path style="opacity:1" fill="#0a0a0a" d="M 66.5,5.5 C 66.5,12.1667 66.5,18.8333 66.5,25.5C 65.3734,26.1217 64.3734,26.955 63.5,28C 56.1667,28.6667 48.8333,28.6667 41.5,28C 41,27.5 40.5,27 40,26.5C 39.3333,19.1667 39.3333,11.8333 40,4.5C 40.8333,3.66667 41.6667,2.83333 42.5,2C 49.1667,1.33333 55.8333,1.33333 62.5,2C 63.7051,3.37561 65.0384,4.54227 66.5,5.5 Z"/></g>
<g><path style="opacity:1" fill="#f2f2f2" d="M 42.5,5.5 C 49.1667,5.5 55.8333,5.5 62.5,5.5C 62.5,12.1667 62.5,18.8333 62.5,25.5C 55.8333,25.5 49.1667,25.5 42.5,25.5C 42.5,18.8333 42.5,12.1667 42.5,5.5 Z"/></g>
<g><path style="opacity:1" fill="#0d0d0d" d="M 7.5,13.5 C 14.175,13.3337 20.8417,13.5004 27.5,14C 28.6667,15.1667 29.8333,16.3333 31,17.5C 31.4996,24.1583 31.6663,30.825 31.5,37.5C 38.175,37.3337 44.8417,37.5004 51.5,38C 52.3333,38.8333 53.1667,39.6667 54,40.5C 54.6667,47.5 54.6667,54.5 54,61.5C 53.1667,62.3333 52.3333,63.1667 51.5,64C 36.8333,64.6667 22.1667,64.6667 7.5,64C 6.66667,63.1667 5.83333,62.3333 5,61.5C 4.33333,46.5 4.33333,31.5 5,16.5C 6.04499,15.6266 6.87833,14.6266 7.5,13.5 Z"/></g>
<g><path style="opacity:1" fill="#f2f2f2" d="M 7.5,17.5 C 14.1667,17.5 20.8333,17.5 27.5,17.5C 27.5,24.1667 27.5,30.8333 27.5,37.5C 20.8333,37.5 14.1667,37.5 7.5,37.5C 7.5,30.8333 7.5,24.1667 7.5,17.5 Z"/></g>
<g><path style="opacity:1" fill="#bcbcbc" d="M 7.5,40.5 C 14.1667,40.5 20.8333,40.5 27.5,40.5C 27.5,47.1667 27.5,53.8333 27.5,60.5C 20.8333,60.5 14.1667,60.5 7.5,60.5C 7.5,53.8333 7.5,47.1667 7.5,40.5 Z"/></g>
<g><path style="opacity:1" fill="#fefefe" d="M 8.5,41.5 C 14.5,41.5 20.5,41.5 26.5,41.5C 26.5,47.5 26.5,53.5 26.5,59.5C 20.5,59.5 14.5,59.5 8.5,59.5C 8.5,53.5 8.5,47.5 8.5,41.5 Z"/></g>
<g><path style="opacity:1" fill="#f8f8f8" d="M 31.5,40.5 C 37.8333,40.5 44.1667,40.5 50.5,40.5C 50.5,47.1667 50.5,53.8333 50.5,60.5C 44.1667,60.5 37.8333,60.5 31.5,60.5C 31.5,53.8333 31.5,47.1667 31.5,40.5 Z"/></g>
</svg>
